<?xml version="1.0" encoding="UTF-8" standalone="no"?>
<!-- Created with Inkscape (http://www.inkscape.org/) -->

<svg
   width="96"
   height="96"
   viewBox="0 0 96 96"
   version="1.1"
   id="svg1"
   inkscape:version="1.3.2 (091e20e, 2023-11-25)"
   sodipodi:docname="icons-promptery.svg"
   xmlns:inkscape="http://www.inkscape.org/namespaces/inkscape"
   xmlns:sodipodi="http://sodipodi.sourceforge.net/DTD/sodipodi-0.dtd"
   xmlns="http://www.w3.org/2000/svg"
   xmlns:svg="http://www.w3.org/2000/svg">
  <sodipodi:namedview
     id="namedview1"
     pagecolor="#ffffff"
     bordercolor="#000000"
     borderopacity="0.25"
     inkscape:showpageshadow="2"
     inkscape:pageopacity="0.0"
     inkscape:pagecheckerboard="false"
     inkscape:deskcolor="#d1d1d1"
     inkscape:document-units="px"
     showgrid="true"
     inkscape:zoom="2.8284271"
     inkscape:cx="-19.79899"
     inkscape:cy="-80.78695"
     inkscape:window-width="1936"
     inkscape:window-height="1298"
     inkscape:window-x="1862"
     inkscape:window-y="63"
     inkscape:window-maximized="0"
     inkscape:current-layer="layer1">
    <inkscape:grid
       id="grid1"
       units="px"
       originx="-300"
       originy="-100"
       spacingx="1"
       spacingy="1"
       empcolor="#0099e5"
       empopacity="0.30196078"
       color="#0099e5"
       opacity="0.14901961"
       empspacing="4"
       dotted="false"
       gridanglex="30"
       gridanglez="30"
       visible="true" />
    <inkscape:grid
       id="grid2"
       units="px"
       originx="-300"
       originy="-100"
       spacingx="100"
       spacingy="100"
       empcolor="#0024e5"
       empopacity="0.30196078"
       color="#0099e5"
       opacity="0.14901961"
       empspacing="1"
       dotted="false"
       gridanglex="30"
       gridanglez="30"
       visible="true" />
    <inkscape:grid
       id="grid3"
       units="px"
       originx="-304"
       originy="-104"
       spacingx="100"
       spacingy="100"
       empcolor="#0024e5"
       empopacity="0.30196078"
       color="#0099e5"
       opacity="0.14901961"
       empspacing="1"
       dotted="false"
       gridanglex="30"
       gridanglez="30"
       visible="true"
       enabled="true" />
  </sodipodi:namedview>
  <defs
     id="defs1" />
  <g
     inkscape:label="Ebene 1"
     inkscape:groupmode="layer"
     id="layer1"
     transform="translate(-300,-100)">
    <path
       style="fill:#808080;stroke-width:0.666667"
       id="path15-5-7-1"
       sodipodi:type="arc"
       sodipodi:cx="332"
       sodipodi:cy="148"
       sodipodi:rx="4"
       sodipodi:ry="4"
       sodipodi:start="0"
       sodipodi:end="6.2523746"
       sodipodi:open="true"
       sodipodi:arc-type="arc"
       d="m 336,148 a 4,4 0 0 1 -3.96919,3.99988 4,4 0 0 1 -4.03034,-3.93826 4,4 0 0 1 3.90711,-4.06055 4,4 0 0 1 4.09052,3.87571" />
    <path
       style="fill:#808080;stroke-width:0.666667"
       id="path15-5-7-9-1"
       sodipodi:type="arc"
       sodipodi:cx="348"
       sodipodi:cy="148"
       sodipodi:rx="4"
       sodipodi:ry="4"
       sodipodi:start="0"
       sodipodi:end="6.2523746"
       sodipodi:open="true"
       sodipodi:arc-type="arc"
       d="m 352,148 a 4,4 0 0 1 -3.96919,3.99988 4,4 0 0 1 -4.03034,-3.93826 4,4 0 0 1 3.90711,-4.06055 4,4 0 0 1 4.09052,3.87571" />
    <path
       style="fill:#808080;stroke-width:0.666667"
       id="path15-5-7-9-8-4"
       sodipodi:type="arc"
       sodipodi:cx="364"
       sodipodi:cy="148"
       sodipodi:rx="4"
       sodipodi:ry="4"
       sodipodi:start="0"
       sodipodi:end="6.2523746"
       sodipodi:open="true"
       sodipodi:arc-type="arc"
       d="m 368,148 a 4,4 0 0 1 -3.96919,3.99988 4,4 0 0 1 -4.03034,-3.93826 4,4 0 0 1 3.90711,-4.06055 4,4 0 0 1 4.09052,3.87571" />
    <path
       id="rect5-2-3-0"
       style="fill:#808080;fill-opacity:1"
       d="m 316,108 v 24 h 4 v -20 h 56 v 20 h 4 v -24 z"
       sodipodi:nodetypes="ccccccccc" />
    <rect
       style="fill:#808080;fill-opacity:1;stroke-width:1.06153"
       id="rect7-7-2-9"
       width="36"
       height="4"
       x="328"
       y="120" />
    <rect
       style="fill:#808080;fill-opacity:1;stroke-width:0.498916"
       id="rect10-7-9-3"
       width="8"
       height="4"
       x="328"
       y="128" />
    <rect
       style="fill:#808080;fill-opacity:1;stroke-width:0.505285"
       id="rect11-9-4-4"
       width="8"
       height="4"
       x="344"
       y="128" />
    <rect
       style="fill:#808080;fill-opacity:1;stroke-width:0.593522"
       id="rect12-0-1-0"
       width="8"
       height="4"
       x="360"
       y="128" />
    <path
       id="rect5-2-3-3-7"
       style="fill:#808080;fill-opacity:1"
       d="m 316,188 v -24 h 4 v 20 h 56 v -20 h 4 v 24 z"
       sodipodi:nodetypes="ccccccccc" />
    <rect
       style="fill:#808080;fill-opacity:1;stroke-width:0.936181"
       id="rect7-7-2-5-5"
       width="28"
       height="4"
       x="328"
       y="-176"
       transform="scale(1,-1)" />
    <rect
       style="fill:#808080;fill-opacity:1;stroke-width:0.498916"
       id="rect10-7-9-4-7"
       width="8"
       height="4"
       x="328"
       y="-168"
       transform="scale(1,-1)" />
    <rect
       style="fill:#808080;fill-opacity:1;stroke-width:0.505285"
       id="rect11-9-4-3-5"
       width="8"
       height="4"
       x="344"
       y="-168"
       transform="scale(1,-1)" />
    <rect
       style="fill:#808080;fill-opacity:1;stroke-width:0.593522"
       id="rect12-0-1-6-0"
       width="8"
       height="4"
       x="360"
       y="-168"
       transform="scale(1,-1)" />
    <rect
       style="fill:none"
       id="rect15-4-47"
       width="96"
       height="96"
       x="300"
       y="100" />
  </g>
</svg>
