<?xml version="1.0" encoding="UTF-8" standalone="no"?>
<!-- Created with Inkscape (http://www.inkscape.org/) -->

<svg
   width="96"
   height="96"
   viewBox="0 0 96 96"
   version="1.1"
   id="svg1"
   inkscape:version="1.3.2 (091e20e, 2023-11-25)"
   sodipodi:docname="robot.svg"
   xmlns:inkscape="http://www.inkscape.org/namespaces/inkscape"
   xmlns:sodipodi="http://sodipodi.sourceforge.net/DTD/sodipodi-0.dtd"
   xmlns="http://www.w3.org/2000/svg"
   xmlns:svg="http://www.w3.org/2000/svg">
  <sodipodi:namedview
     id="namedview1"
     pagecolor="#ffffff"
     bordercolor="#000000"
     borderopacity="0.25"
     inkscape:showpageshadow="2"
     inkscape:pageopacity="0.0"
     inkscape:pagecheckerboard="false"
     inkscape:deskcolor="#d1d1d1"
     inkscape:document-units="px"
     showgrid="true"
     inkscape:zoom="3.7095118"
     inkscape:cx="69.146566"
     inkscape:cy="19.544351"
     inkscape:window-width="1552"
     inkscape:window-height="1212"
     inkscape:window-x="840"
     inkscape:window-y="174"
     inkscape:window-maximized="0"
     inkscape:current-layer="layer1">
    <inkscape:grid
       id="grid1"
       units="px"
       originx="0"
       originy="0"
       spacingx="1"
       spacingy="1"
       empcolor="#0099e5"
       empopacity="0.30196078"
       color="#0099e5"
       opacity="0.14901961"
       empspacing="4"
       dotted="false"
       gridanglex="30"
       gridanglez="30"
       visible="true" />
  </sodipodi:namedview>
  <defs
     id="defs1" />
  <g
     inkscape:label="Ebene 1"
     inkscape:groupmode="layer"
     id="layer1">
    <path
       id="rect17"
       style="fill:#808080"
       d="m 24,24 c -6.647979,0 -12,5.352021 -12,12 v 28 c 0,6.647979 5.352021,12 12,12 h 48 c 6.647979,0 12,-5.352021 12,-12 V 36 C 84,29.352021 78.647979,24 72,24 Z m 10,12 c 3.313708,0 6,2.686292 6,6 0,3.313708 -2.686292,6 -6,6 -3.313708,0 -6,-2.686292 -6,-6 0,-3.313708 2.686292,-6 6,-6 z m 28,0 c 3.313708,0 6,2.686292 6,6 0,3.313708 -2.686292,6 -6,6 -3.313708,0 -6,-2.686292 -6,-6 0,-3.313708 2.686292,-6 6,-6 z m 4,23.046875 V 62 c 0,0.756037 -12.666677,3 -18,3 -5.333323,0 -18,-2.243803 -18,-3 v -3 c 0,-3 9.056929,1 18,1 10.965722,0 18,-4 18,-0.953125 z"
       sodipodi:nodetypes="ssssssssssssssssssssssssss" />
    <rect
       style="fill:#808080"
       id="rect8"
       width="4"
       height="16"
       x="46"
       y="16"
       rx="1.8801081"
       ry="3.8640423" />
    <path
       style="fill:#808080"
       id="path18"
       sodipodi:type="arc"
       sodipodi:cx="48"
       sodipodi:cy="14"
       sodipodi:rx="6"
       sodipodi:ry="6"
       sodipodi:start="0"
       sodipodi:end="6.2523746"
       sodipodi:open="true"
       sodipodi:arc-type="arc"
       d="m 54,14 a 6,6 0 0 1 -5.953784,5.999822 6,6 0 0 1 -6.045504,-5.907394 6,6 0 0 1 5.860652,-6.0908261 6,6 0 0 1 6.135788,5.8135631" />
  </g>
</svg>
