<?xml version="1.0" encoding="UTF-8" standalone="no"?>
<!-- Created with Inkscape (http://www.inkscape.org/) -->

<svg
   width="1024"
   height="1024"
   viewBox="0 0 1024 1024"
   version="1.1"
   id="svg1"
   inkscape:export-filename="icon.png"
   inkscape:export-xdpi="96"
   inkscape:export-ydpi="96"
   inkscape:version="1.3.2 (091e20e, 2023-11-25)"
   sodipodi:docname="icon.svg"
   xmlns:inkscape="http://www.inkscape.org/namespaces/inkscape"
   xmlns:sodipodi="http://sodipodi.sourceforge.net/DTD/sodipodi-0.dtd"
   xmlns="http://www.w3.org/2000/svg"
   xmlns:svg="http://www.w3.org/2000/svg">
  <sodipodi:namedview
     id="namedview1"
     pagecolor="#ffffff"
     bordercolor="#000000"
     borderopacity="0.25"
     inkscape:showpageshadow="2"
     inkscape:pageopacity="0.0"
     inkscape:pagecheckerboard="0"
     inkscape:deskcolor="#d1d1d1"
     inkscape:document-units="mm"
     showgrid="true"
     inkscape:zoom="0.38931548"
     inkscape:cx="235.0279"
     inkscape:cy="534.27107"
     inkscape:window-width="1712"
     inkscape:window-height="1235"
     inkscape:window-x="848"
     inkscape:window-y="81"
     inkscape:window-maximized="0"
     inkscape:current-layer="layer1">
    <inkscape:grid
       id="grid1"
       units="px"
       originx="0"
       originy="0"
       spacingx="4"
       spacingy="4"
       empcolor="#0099e5"
       empopacity="0.30196078"
       color="#0099e5"
       opacity="0.14901961"
       empspacing="4"
       dotted="false"
       gridanglex="30"
       gridanglez="30"
       visible="true" />
  </sodipodi:namedview>
  <defs
     id="defs1" />
  <g
     inkscape:label="Ebene 1"
     inkscape:groupmode="layer"
     id="layer1">
    <path
       id="rect1-5"
       style="display:inline;fill:#40bebe;fill-opacity:1;stroke-width:1.37536"
       d="M 816,128 H 592 c -62.048,0 -112,49.952 -112,112 v 128 c 0,62.048 49.952,112 112,112 h 48 c 43.4211,53.84948 180,136 192,128 12,-8 -36,-84 -32,-128 h 16 c 62.048,0 112,-49.952 112,-112 V 240 C 928,177.952 878.048,128 816,128 Z"
       sodipodi:nodetypes="sssssczcssss" />
    <path
       id="rect1-4-3"
       style="display:inline;fill:#ffffff;stroke-width:1.37536;fill-opacity:1"
       d="m 818.03596,159.65338 c 15.47775,0.3061 31.01294,5.31016 43.73758,14.26016 6.58534,4.58715 12.45839,10.18489 17.38867,16.51563 0.35054,0.47197 0.92035,1.19694 1.33838,1.78084 7.61854,10.31294 12.63,22.51377 14.51318,35.19377 0.10923,0.76241 0.26359,1.87292 0.35208,2.64575 C 896.10166,235.94308 896,241.67484 896,248 c 0.0166,70.79061 -1.2e-4,-18.18163 -0.0467,52.60899 -0.0197,23.31642 -0.005,46.6333 -0.0463,69.94944 -0.0911,3.99349 -0.49028,7.84894 -1.19388,11.80649 -0.69608,3.9412 -1.76873,7.98107 -3.02359,11.67025 -1.79775,5.24298 -4.12726,10.30469 -6.96093,15.06836 -0.37797,0.6372 -0.92619,1.52309 -1.38673,2.24387 -1.10436,1.72357 -2.38807,3.53699 -3.55468,5.0823 -10.10382,13.31561 -24.46273,23.37641 -40.49852,28.14207 -1.28954,0.39102 -2.46539,0.71277 -3.83594,1.05294 -6.57183,1.65489 -13.35806,2.36667 -20.1291,2.31652 -18.24472,0.0847 -4.48995,-0.15802 -22.73488,-0.14002 -6.7125,4e-4 -13.425,10e-4 -20.1375,10e-4 -4.45121,2.7e-4 -5.00687,27.4778 -4.58524,41.43009 0.25966,7.35462 1.35006,14.6597 2.78588,21.86989 2.7382,13.50932 17.34813,36.70029 11.66067,39.60822 -35.26069,-13.64042 -100.21486,-71.10691 -115.42024,-88.67665 -2.51661,-2.79841 -4.68325,-5.91292 -7.41863,-8.50947 C 654.74055,449.2412 648,447.80248 640,448 c -111.14153,0.0411 68.08981,0.3913 -43.0517,0.3417 -5.2966,-0.0174 -10.6469,0.0933 -15.8762,-0.74537 -19.5753,-2.72966 -38.0005,-13.04734 -50.4664,-28.39823 -10.8216,-13.14295 -17.2438,-29.84616 -17.9377,-46.86307 -0.1916,-6.15473 -0.1054,-12.31536 -0.1313,-18.47264 -0.01,-75.00937 -0.06,9.56079 -0.013,-65.44857 0.025,-17.04972 0.01,-34.10006 0.06,-51.14938 0.3284,-14.78635 5.1041,-29.38025 13.2566,-41.69321 0.3429,-0.49606 0.8597,-1.27812 1.2886,-1.871 1.5227,-2.16613 3.2835,-4.38514 4.9477,-6.29306 6.4701,-7.41937 14.3174,-13.63133 23.0254,-18.22265 0.3002,-0.14873 1.0654,-0.54724 1.3652,-0.70034 C 568.36436,162.50446 580,160 592,160 Z"
       sodipodi:nodetypes="ccccccccccccccccccccccccccccccccccccccc" />
    <path
       style="fill:#ff0055;fill-opacity:1"
       id="path1-0"
       sodipodi:type="arc"
       sodipodi:cx="-624"
       sodipodi:cy="272"
       sodipodi:rx="48"
       sodipodi:ry="48"
       sodipodi:start="0"
       sodipodi:end="6.2523746"
       sodipodi:open="true"
       sodipodi:arc-type="arc"
       d="m -576,272 a 48,48 0 0 1 -47.63028,47.99858 48,48 0 0 1 -48.36402,-47.25915 48,48 0 0 1 46.88521,-48.72662 48,48 0 0 1 49.08631,46.50851"
       transform="scale(-1,1)" />
    <path
       style="fill:#ff0055;fill-opacity:1"
       id="path1-6-8"
       sodipodi:type="arc"
       sodipodi:cx="-784"
       sodipodi:cy="272"
       sodipodi:rx="48"
       sodipodi:ry="48"
       sodipodi:start="0"
       sodipodi:end="6.2523746"
       sodipodi:open="true"
       sodipodi:arc-type="arc"
       d="m -736,272 a 48,48 0 0 1 -47.63028,47.99858 48,48 0 0 1 -48.36402,-47.25915 48,48 0 0 1 46.88521,-48.72662 48,48 0 0 1 49.08631,46.50851"
       transform="scale(-1,1)" />
    <path
       id="rect1"
       style="display:inline;fill:#324294;fill-opacity:1;stroke-width:1.37536"
       d="m 208,288 h 384 c 62.048,0 112,49.952 112,112 v 256 c 0,62.048 -49.952,112 -112,112 H 416 c -43.4211,53.84948 -180,136 -192,128 -12,-8 36,-84 32,-128 H 208 C 145.952,768 96,718.048 96,656 V 400 c 0,-62.048 49.952,-112 112,-112 z"
       sodipodi:nodetypes="sssssczcssss" />
    <path
       id="rect1-4"
       style="display:inline;fill:#ffffff;stroke-width:1.37536;fill-opacity:1"
       d="m 364.44266,320.0129 c -90.3342,0.0199 -68.14455,-0.38842 -158.47862,-0.35952 -15.47775,0.3061 -31.01294,5.31016 -43.73758,14.26016 -6.58534,4.58715 -12.45839,10.18489 -17.38867,16.51563 -0.35054,0.47197 -0.92035,1.19694 -1.33838,1.78084 -7.61854,10.31294 -12.63,22.51377 -14.51318,35.19377 -0.10923,0.76241 -0.26359,1.87292 -0.35208,2.64575 -0.73581,5.89355 -0.49909,11.84332 -0.56253,17.76713 -0.0166,70.79061 -0.0715,110.00171 -0.0249,180.79233 0.0197,23.31642 0.005,46.6333 0.0463,69.94944 0.0911,3.99349 0.49028,7.84894 1.19388,11.80649 0.69608,3.9412 1.76873,7.98107 3.02359,11.67025 1.79775,5.24298 4.12726,10.30469 6.96093,15.06836 0.37797,0.6372 0.92619,1.52309 1.38673,2.24387 1.10436,1.72357 2.38807,3.53699 3.55468,5.0823 10.10382,13.31561 24.46273,23.37641 40.49852,28.14207 1.28954,0.39102 2.46539,0.71277 3.83594,1.05294 6.57183,1.65489 13.35806,2.36667 20.1291,2.31652 18.24472,0.0847 36.48995,0.0395 54.73488,0.0575 6.7125,4e-4 13.425,10e-4 20.1375,10e-4 4.45121,2.7e-4 5.00687,27.4778 4.58524,41.43009 -0.25966,7.35462 -1.35006,14.6597 -2.78588,21.86989 C 282.60993,812.80903 268,836 273.68746,838.90793 c 35.26069,-13.64042 100.21486,-71.10691 115.42024,-88.67665 2.51661,-2.79841 4.68325,-5.91292 7.41863,-8.50947 4.73312,-4.28309 11.3115,-6.20349 17.6248,-5.75133 111.14153,0.0411 61.75906,0.42082 172.90055,0.37122 5.29666,-0.0174 10.64693,0.0933 15.8762,-0.74537 19.57533,-2.72966 38.0005,-13.04734 50.46644,-28.39823 10.8216,-13.14295 17.24377,-29.84616 17.93769,-46.86307 0.19157,-6.15473 0.10542,-12.31536 0.13127,-18.47264 0.006,-75.00937 0.0597,-118.43921 0.0127,-193.44857 -0.0254,-17.04972 -0.007,-34.10006 -0.06,-51.14938 -0.3284,-14.78635 -5.10409,-29.38025 -13.25659,-41.69321 -0.34294,-0.49606 -0.85965,-1.27812 -1.28857,-1.871 -1.52268,-2.16613 -3.2835,-4.38514 -4.94776,-6.29306 -6.47007,-7.41937 -14.31739,-13.63133 -23.02539,-18.22265 -0.30021,-0.14873 -1.06537,-0.54724 -1.36515,-0.70034 -9.69507,-4.87288 -20.39002,-7.75022 -31.23095,-8.30759 -1.82484,-0.10556 -3.47784,-0.15533 -5.3425,-0.17859 C 545.97282,319.9764 500.98633,320.003 456,320 c -46.51914,0.004 -45.03828,0.009 -91.55742,0.0131 z"
       sodipodi:nodetypes="ccccccccccccccccccccccccccccccccccccccccccc" />
    <path
       style="fill:#324294;fill-opacity:1"
       id="path1"
       sodipodi:type="arc"
       sodipodi:cx="400"
       sodipodi:cy="624"
       sodipodi:rx="48"
       sodipodi:ry="48"
       sodipodi:start="0"
       sodipodi:end="6.2523746"
       sodipodi:open="true"
       sodipodi:arc-type="arc"
       d="m 448,624 a 48,48 0 0 1 -47.63028,47.99858 48,48 0 0 1 -48.36402,-47.25915 48,48 0 0 1 46.88521,-48.72662 48,48 0 0 1 49.08631,46.50851" />
    <path
       style="fill:#324294;fill-opacity:1"
       id="path1-4"
       sodipodi:type="arc"
       sodipodi:cx="560"
       sodipodi:cy="624"
       sodipodi:rx="48"
       sodipodi:ry="48"
       sodipodi:start="0"
       sodipodi:end="6.2523746"
       sodipodi:open="true"
       sodipodi:arc-type="arc"
       d="m 608,624 a 48,48 0 0 1 -47.63028,47.99858 48,48 0 0 1 -48.36402,-47.25915 48,48 0 0 1 46.88521,-48.72662 48,48 0 0 1 49.08631,46.50851" />
    <path
       style="fill:#324294;fill-opacity:1"
       id="path1-6"
       sodipodi:type="arc"
       sodipodi:cx="240"
       sodipodi:cy="624"
       sodipodi:rx="48"
       sodipodi:ry="48"
       sodipodi:start="0"
       sodipodi:end="6.2523746"
       sodipodi:open="true"
       sodipodi:arc-type="arc"
       d="m 288,624 a 48,48 0 0 1 -47.63028,47.99858 48,48 0 0 1 -48.36402,-47.25915 48,48 0 0 1 46.88521,-48.72662 48,48 0 0 1 49.08631,46.50851" />
  </g>
</svg>
