<?xml version="1.0" encoding="UTF-8" standalone="no"?>
<!-- Created with Inkscape (http://www.inkscape.org/) -->

<svg
   width="640"
   height="480"
   id="svg2"
   version="1.1"
   inkscape:version="1.3.2 (091e20e, 2023-11-25)"
   sodipodi:docname="mac_dmg-template.svg"
   xmlns:inkscape="http://www.inkscape.org/namespaces/inkscape"
   xmlns:sodipodi="http://sodipodi.sourceforge.net/DTD/sodipodi-0.dtd"
   xmlns:xlink="http://www.w3.org/1999/xlink"
   xmlns="http://www.w3.org/2000/svg"
   xmlns:svg="http://www.w3.org/2000/svg"
   xmlns:rdf="http://www.w3.org/1999/02/22-rdf-syntax-ns#"
   xmlns:cc="http://creativecommons.org/ns#"
   xmlns:dc="http://purl.org/dc/elements/1.1/">
  <defs
     id="defs4">
    <rect
       x="106.5936"
       y="-340.31673"
       width="14.385937"
       height="35.268748"
       id="rect3" />
    <linearGradient
       gradientUnits="userSpaceOnUse"
       xlink:href="#linearGradient9115"
       id="linearGradient9121"
       y2="1052.3622"
       x2="0"
       y1="28.362183"
       x1="1024" />
    <linearGradient
       gradientUnits="userSpaceOnUse"
       xlink:href="#linearGradient9107"
       id="linearGradient9113"
       y2="0"
       x2="1024"
       y1="1024"
       x1="0" />
    <linearGradient
       id="linearGradient9107">
      <stop
         offset="0"
         style="stop-color:#ff93f1;stop-opacity:1"
         id="stop9109" />
      <stop
         offset="1"
         style="stop-color:#ffc78b;stop-opacity:1"
         id="stop9111" />
    </linearGradient>
    <linearGradient
       id="linearGradient9115">
      <stop
         offset="0"
         style="stop-color:#000086;stop-opacity:1"
         id="stop9117" />
      <stop
         offset="1"
         style="stop-color:#00be00;stop-opacity:1"
         id="stop9119" />
    </linearGradient>
    <linearGradient
       inkscape:collect="always"
       xlink:href="#linearGradient9115"
       id="linearGradient4789"
       gradientUnits="userSpaceOnUse"
       x1="1024"
       y1="28.362183"
       x2="0"
       y2="1052.3622" />
    <linearGradient
       inkscape:collect="always"
       xlink:href="#linearGradient9115"
       id="linearGradient4815"
       gradientUnits="userSpaceOnUse"
       x1="1024"
       y1="28.362183"
       x2="0"
       y2="1052.3622" />
    <linearGradient
       inkscape:collect="always"
       xlink:href="#linearGradient9115"
       id="linearGradient4839"
       gradientUnits="userSpaceOnUse"
       x1="1024"
       y1="28.362183"
       x2="0"
       y2="1052.3622" />
  </defs>
  <sodipodi:namedview
     id="base"
     pagecolor="#ffffff"
     bordercolor="#666666"
     borderopacity="1.0"
     inkscape:pageopacity="0.0"
     inkscape:pageshadow="2"
     inkscape:zoom="0.98994949"
     inkscape:cx="465.17525"
     inkscape:cy="136.87567"
     inkscape:document-units="px"
     inkscape:current-layer="layer1"
     showgrid="true"
     inkscape:window-width="1840"
     inkscape:window-height="1066"
     inkscape:window-x="720"
     inkscape:window-y="139"
     inkscape:window-maximized="0"
     inkscape:showpageshadow="2"
     inkscape:pagecheckerboard="0"
     inkscape:deskcolor="#d1d1d1">
    <inkscape:grid
       type="xygrid"
       id="grid4844"
       empspacing="5"
       visible="true"
       enabled="false"
       snapvisiblegridlinesonly="true"
       spacingx="5px"
       spacingy="5px"
       originx="0"
       originy="0"
       units="px" />
  </sodipodi:namedview>
  <metadata
     id="metadata7">
    <rdf:RDF>
      <cc:Work
         rdf:about="">
        <dc:format>image/svg+xml</dc:format>
        <dc:type
           rdf:resource="http://purl.org/dc/dcmitype/StillImage" />
      </cc:Work>
    </rdf:RDF>
  </metadata>
  <g
     inkscape:label="Ebene 1"
     inkscape:groupmode="layer"
     id="layer1"
     transform="translate(0,-572.36218)">
    <rect
       style="fill-opacity:1;stroke:none;fill:#dddddd"
       id="rect3945"
       width="640"
       height="480"
       x="0"
       y="572.36218"
       inkscape:export-filename="/Volumes/Portable/Beispiele/Generator/additional/MarkoBkg.png"
       inkscape:export-xdpi="90"
       inkscape:export-ydpi="90" />
    <g
       id="g3"
       transform="translate(32.688877,9.2156419)">
      <g
         id="g5"
         transform="translate(4.6691894e-6,-2.0846113)">
        <text
           id="text4719"
           y="666.15649"
           x="275.85593"
           style="font-style:normal;font-variant:normal;font-weight:normal;font-stretch:normal;line-height:0%;font-family:'Helvetica Neue';-inkscape-font-specification:'Helvetica Neue';letter-spacing:0px;word-spacing:0px;fill:#666666;fill-opacity:1;stroke:none"
           xml:space="preserve"><tspan
             y="666.15649"
             x="275.85593"
             id="tspan4721"
             sodipodi:role="line"
             style="font-size:40px;line-height:1.25"> </tspan></text>
        <text
           id="text3947"
           y="662.71021"
           x="251.96303"
           style="font-style:normal;font-variant:normal;font-weight:normal;font-stretch:normal;line-height:0%;font-family:'Helvetica Neue';-inkscape-font-specification:'Helvetica Neue';letter-spacing:0px;word-spacing:0px;fill:#666666;fill-opacity:1;stroke:none"
           xml:space="preserve"><tspan
             style="font-size:56px;line-height:1.25"
             y="662.71021"
             x="251.96303"
             id="tspan3949"
             sodipodi:role="line">Promptery</tspan></text>
        <text
           id="text4723"
           y="709.13879"
           x="256.10703"
           style="font-style:normal;font-variant:normal;font-weight:normal;font-stretch:normal;line-height:0%;font-family:'Helvetica Neue';-inkscape-font-specification:'Helvetica Neue';letter-spacing:0px;word-spacing:0px;fill:#666666;fill-opacity:1;stroke:none"
           xml:space="preserve"><tspan
             style="font-size:28px;line-height:1.25;fill:#666666"
             y="709.13879"
             x="256.10703"
             sodipodi:role="line"
             id="tspan4">LLM chat frontent</tspan></text>
      </g>
    </g>
    <text
       id="text4781"
       y="908.44592"
       x="39.027058"
       style="font-style:normal;font-variant:normal;font-weight:normal;font-stretch:normal;line-height:0%;font-family:'Helvetica Neue';-inkscape-font-specification:'Helvetica Neue';letter-spacing:0px;word-spacing:0px;fill:#666666;fill-opacity:1;stroke:none"
       xml:space="preserve"
       inkscape:export-filename="/Volumes/Portable/Beispiele/Generator/additional/MarkoBkg.png"
       inkscape:export-xdpi="90"
       inkscape:export-ydpi="90"><tspan
         id="tspan4783"
         style="font-size:24px;line-height:1.25;fill:#666666"
         y="908.44592"
         x="39.027058"
         sodipodi:role="line">Install: Drag Promptery to your Applications folder.</tspan></text>
    <text
       id="text4749"
       y="808.45819"
       x="40.803059"
       style="font-style:normal;font-variant:normal;font-weight:normal;font-stretch:normal;line-height:0%;font-family:'Helvetica Neue';-inkscape-font-specification:'Helvetica Neue';letter-spacing:0px;word-spacing:0px;fill:#666666;fill-opacity:1;stroke:none"
       xml:space="preserve"
       inkscape:export-filename="/Volumes/Portable/Beispiele/Generator/additional/MarkoBkg.png"
       inkscape:export-xdpi="90"
       inkscape:export-ydpi="90"><tspan
         style="font-size:24px;line-height:1.25;fill:#666666"
         y="808.45819"
         x="40.803059"
         sodipodi:role="line"
         id="tspan4899">By installing or using Promptery,</tspan><tspan
         style="font-size:24px;line-height:1.25;fill:#666666"
         y="838.45819"
         x="40.803059"
         sodipodi:role="line"
         id="tspan4913">you accept the licenses:</tspan></text>
    <path
       style="fill:#666666;fill-opacity:1;stroke:none"
       d="m 265,967.36218 75,0 0,-20 35,35 -35,35.00002 0,-20.00002 -75,0 z"
       id="rect4841"
       inkscape:connector-curvature="0"
       sodipodi:nodetypes="cccccccc"
       inkscape:export-filename="/Volumes/Portable/Beispiele/Generator/additional/MarkoBkg.png"
       inkscape:export-xdpi="90"
       inkscape:export-ydpi="90" />
    <rect
       style="fill:#ffffff;fill-opacity:1;stroke:none"
       id="rect4868"
       width="110"
       height="110"
       x="105"
       y="927.36218"
       rx="9.166666"
       ry="9.166666"
       inkscape:export-filename="/Volumes/Portable/Beispiele/Generator/additional/MarkoBkg.png"
       inkscape:export-xdpi="90"
       inkscape:export-ydpi="90" />
    <rect
       ry="9.166666"
       rx="9.166666"
       y="927.36218"
       x="425"
       height="110"
       width="110"
       id="rect4870"
       style="fill:#ffffff;fill-opacity:1;stroke:none"
       inkscape:export-filename="/Volumes/Portable/Beispiele/Generator/additional/MarkoBkg.png"
       inkscape:export-xdpi="90"
       inkscape:export-ydpi="90" />
    <rect
       inkscape:export-ydpi="90"
       inkscape:export-xdpi="90"
       inkscape:export-filename="/Volumes/Portable/Beispiele/Generator/additional/MarkoBkg.png"
       style="fill:#b3b3b3;fill-opacity:1;stroke:none"
       id="rect4893"
       width="110"
       height="110"
       x="425"
       y="762.36218"
       rx="9.166666"
       ry="9.166666" />
    <text
       xml:space="preserve"
       transform="translate(0,572.36218)"
       id="text1"
       style="fill:#ff0055;white-space:pre;shape-inside:url(#rect3)" />
    <g
       id="g2"
       transform="translate(-0.31058281,0.26178891)">
      <path
         id="rect1-5-9"
         style="display:inline;fill:#40bebe;fill-opacity:1;stroke-width:0.242566"
         d="m 224.003,605.52059 h -39.50585 c -10.94312,0 -19.75292,8.8098 -19.75292,19.75292 v 22.57477 c 0,10.94312 8.8098,19.75292 19.75292,19.75292 h 8.46554 c 7.65798,9.49719 31.74577,23.9857 33.86215,22.57477 2.11639,-1.41092 -6.34915,-14.81469 -5.64369,-22.57477 h 2.82185 c 10.94312,0 19.75292,-8.8098 19.75292,-19.75292 v -22.57477 c 0,-10.94312 -8.8098,-19.75292 -19.75292,-19.75292 z"
         sodipodi:nodetypes="sssssczcssss" />
      <path
         id="rect1-4-3-3"
         style="display:inline;fill:#ffffff;fill-opacity:1;stroke-width:0.242566"
         d="m 224.36207,611.10315 c 2.72974,0.054 5.46961,0.93653 7.71379,2.515 1.16143,0.80901 2.19723,1.79626 3.06676,2.91278 0.0618,0.0832 0.16232,0.2111 0.23605,0.31408 1.34364,1.81885 2.22749,3.97065 2.55962,6.20696 0.0193,0.13447 0.0465,0.33032 0.0621,0.46662 0.12978,1.03942 0.11185,2.0503 0.11185,3.16584 0.003,12.48502 -2e-5,-3.20661 -0.008,9.27841 -0.003,4.11221 -8.8e-4,8.2245 -0.008,12.33666 -0.0161,0.70431 -0.0865,1.38428 -0.21055,2.08225 -0.12277,0.6951 -0.31195,1.40759 -0.53326,2.05823 -0.31706,0.92468 -0.72791,1.81739 -1.22767,2.65754 -0.0667,0.11238 -0.16335,0.26862 -0.24457,0.39574 -0.19477,0.30398 -0.42117,0.6238 -0.62692,0.89634 -1.78197,2.34842 -4.31438,4.12279 -7.14254,4.96329 -0.22743,0.069 -0.43481,0.12571 -0.67653,0.1857 -1.15904,0.29187 -2.3559,0.4174 -3.55007,0.40856 -3.21774,0.0149 -0.79187,-0.0279 -4.00965,-0.0247 -1.18385,7e-5 -2.3677,1.8e-4 -3.55156,1.8e-4 -0.78504,5e-5 -0.88304,4.84613 -0.80867,7.30683 0.0458,1.2971 0.2381,2.58547 0.49133,3.85709 0.48292,2.38258 3.05961,6.47266 2.05654,6.98552 -6.21877,-2.4057 -17.67444,-12.5408 -20.35614,-15.63949 -0.44384,-0.49354 -0.82596,-1.04283 -1.30839,-1.50078 -0.83476,-0.75538 -2.02356,-1.00912 -3.43448,-0.97429 -19.60152,0.007 12.00868,0.069 -7.59283,0.0603 -0.93414,-0.003 -1.87775,0.0165 -2.80001,-0.13145 -3.45241,-0.48142 -6.70198,-2.3011 -8.90053,-5.00847 -1.90856,-2.31796 -3.04121,-5.26383 -3.16359,-8.26502 -0.0338,-1.08548 -0.0186,-2.172 -0.0232,-3.25794 -0.002,-13.22905 -0.0106,1.6862 -0.002,-11.54286 0.004,-3.00698 0.002,-6.01407 0.0106,-9.02098 0.0579,-2.6078 0.90019,-5.18166 2.33801,-7.35324 0.0605,-0.0875 0.15162,-0.22541 0.22726,-0.32998 0.26855,-0.38203 0.5791,-0.77338 0.8726,-1.10987 1.14111,-1.30852 2.5251,-2.4041 4.06089,-3.21385 0.0529,-0.0262 0.1879,-0.0965 0.24077,-0.12351 2.09825,-1.05462 4.15037,-1.49632 6.26676,-1.49632 z"
         sodipodi:nodetypes="ccccccccccccccccccccccccccccccccccccccc" />
      <path
         style="fill:#ff0055;fill-opacity:1;stroke-width:0.176365"
         id="path1-0-8"
         sodipodi:type="arc"
         sodipodi:cx="-190.14084"
         sodipodi:cy="630.91718"
         sodipodi:rx="8.465539"
         sodipodi:ry="8.465539"
         sodipodi:start="0"
         sodipodi:end="6.2523746"
         sodipodi:open="true"
         sodipodi:arc-type="arc"
         d="m -181.6753,630.91718 a 8.465539,8.465539 0 0 1 -8.40033,8.46528 8.465539,8.465539 0 0 1 -8.52974,-8.33488 8.465539,8.465539 0 0 1 8.26893,-8.59368 8.465539,8.465539 0 0 1 8.65712,8.20249"
         transform="scale(-1,1)" />
      <path
         style="fill:#ff0055;fill-opacity:1;stroke-width:0.176365"
         id="path1-6-8-0"
         sodipodi:type="arc"
         sodipodi:cx="-218.3593"
         sodipodi:cy="630.91718"
         sodipodi:rx="8.465539"
         sodipodi:ry="8.465539"
         sodipodi:start="0"
         sodipodi:end="6.2523746"
         sodipodi:open="true"
         sodipodi:arc-type="arc"
         d="m -209.89376,630.91718 a 8.465539,8.465539 0 0 1 -8.40033,8.46528 8.465539,8.465539 0 0 1 -8.52974,-8.33488 8.465539,8.465539 0 0 1 8.26893,-8.59368 8.465539,8.465539 0 0 1 8.65712,8.20249"
         transform="scale(-1,1)" />
      <path
         id="rect1-2"
         style="display:inline;fill:#324294;fill-opacity:1;stroke-width:0.242566"
         d="m 116.77284,633.73905 h 67.72431 c 10.94312,0 19.75292,8.8098 19.75292,19.75292 v 45.14955 c 0,10.94311 -8.8098,19.75292 -19.75292,19.75292 h -31.04031 c -7.65798,9.49718 -31.74577,23.98569 -33.86215,22.57477 -2.11639,-1.41093 6.34915,-14.8147 5.64369,-22.57477 h -8.46554 c -10.94312,0 -19.752925,-8.80981 -19.752925,-19.75292 v -45.14955 c 0,-10.94312 8.809805,-19.75292 19.752925,-19.75292 z"
         sodipodi:nodetypes="sssssczcssss" />
      <path
         id="rect1-4-4"
         style="display:inline;fill:#ffffff;fill-opacity:1;stroke-width:0.242566"
         d="m 144.36391,639.38502 c -15.93183,0.004 -12.01834,-0.0685 -27.95014,-0.0634 -2.72974,0.054 -5.46961,0.93653 -7.7138,2.515 -1.16142,0.80901 -2.19723,1.79626 -3.06676,2.91278 -0.0618,0.0832 -0.16232,0.2111 -0.23604,0.31408 -1.34365,1.81885 -2.2275,3.97065 -2.55962,6.20696 -0.0193,0.13447 -0.0465,0.33032 -0.0621,0.46662 -0.12977,1.03942 -0.088,2.08876 -0.0992,3.13351 -0.003,12.48501 -0.0126,19.40049 -0.004,31.88551 0.003,4.11221 8.8e-4,8.22451 0.008,12.33666 0.0161,0.70431 0.0865,1.38429 0.21056,2.08226 0.12277,0.69509 0.31195,1.40759 0.53326,2.05823 0.31706,0.92467 0.72791,1.81738 1.22767,2.65753 0.0667,0.11238 0.16334,0.26862 0.24457,0.39575 0.19477,0.30398 0.42117,0.6238 0.62692,0.89634 1.78196,2.34841 4.31438,4.12279 7.14254,4.96329 0.22743,0.069 0.43481,0.1257 0.67652,0.1857 1.15905,0.29186 2.3559,0.4174 3.55008,0.40855 3.21774,0.015 6.43557,0.007 9.65334,0.0101 1.18385,7e-5 2.3677,0 3.55156,0 0.78504,5e-5 0.88304,4.84613 0.80868,7.30683 -0.0458,1.2971 -0.23811,2.58547 -0.49134,3.8571 -0.48292,2.38257 -3.05961,6.47266 -2.05654,6.98551 6.21877,-2.40569 17.67444,-12.54079 20.35614,-15.63948 0.44384,-0.49354 0.82596,-1.04285 1.30839,-1.50078 0.83476,-0.75539 1.99496,-1.09408 3.1084,-1.01433 19.60152,0.007 10.89216,0.0742 30.49368,0.0655 0.93414,-0.003 1.87775,0.0164 2.80001,-0.13147 3.45241,-0.4814 6.70197,-2.30109 8.90053,-5.00846 1.90856,-2.31797 3.04121,-5.26383 3.16359,-8.26503 0.0338,-1.08547 0.0186,-2.17199 0.0231,-3.25792 0.001,-13.22906 0.0105,-20.88859 0.002,-34.11764 -0.004,-3.00698 -0.001,-6.01407 -0.0106,-9.02098 -0.0579,-2.6078 -0.90019,-5.18166 -2.338,-7.35324 -0.0605,-0.0875 -0.15162,-0.22542 -0.22726,-0.32998 -0.26855,-0.38203 -0.5791,-0.77339 -0.87262,-1.10988 -1.14109,-1.30852 -2.52509,-2.40409 -4.06088,-3.21384 -0.0529,-0.0262 -0.18789,-0.0965 -0.24076,-0.12352 -1.70988,-0.85941 -3.5961,-1.36687 -5.50806,-1.46517 -0.32184,-0.0186 -0.61337,-0.0274 -0.94224,-0.0315 -7.93401,-0.004 -15.86807,8.9e-4 -23.8021,3.6e-4 -8.20437,7e-4 -7.9432,0.002 -16.14756,0.002 z"
         sodipodi:nodetypes="ccccccccccccccccccccccccccccccccccccccccccc" />
      <path
         style="fill:#324294;fill-opacity:1;stroke-width:0.176365"
         id="path1-8"
         sodipodi:type="arc"
         sodipodi:cx="150.63499"
         sodipodi:cy="692.9978"
         sodipodi:rx="8.465539"
         sodipodi:ry="8.465539"
         sodipodi:start="0"
         sodipodi:end="6.2523746"
         sodipodi:open="true"
         sodipodi:arc-type="arc"
         d="m 159.10053,692.9978 a 8.465539,8.465539 0 0 1 -8.40033,8.46529 8.465539,8.465539 0 0 1 -8.52974,-8.33488 8.465539,8.465539 0 0 1 8.26893,-8.59369 8.465539,8.465539 0 0 1 8.65713,8.20249" />
      <path
         style="fill:#324294;fill-opacity:1;stroke-width:0.176365"
         id="path1-4-3"
         sodipodi:type="arc"
         sodipodi:cx="178.85345"
         sodipodi:cy="692.9978"
         sodipodi:rx="8.465539"
         sodipodi:ry="8.465539"
         sodipodi:start="0"
         sodipodi:end="6.2523746"
         sodipodi:open="true"
         sodipodi:arc-type="arc"
         d="m 187.31899,692.9978 a 8.465539,8.465539 0 0 1 -8.40033,8.46529 8.465539,8.465539 0 0 1 -8.52974,-8.33488 8.465539,8.465539 0 0 1 8.26893,-8.59369 8.465539,8.465539 0 0 1 8.65713,8.20249" />
      <path
         style="fill:#324294;fill-opacity:1;stroke-width:0.176365"
         id="path1-6-9"
         sodipodi:type="arc"
         sodipodi:cx="122.41653"
         sodipodi:cy="692.9978"
         sodipodi:rx="8.465539"
         sodipodi:ry="8.465539"
         sodipodi:start="0"
         sodipodi:end="6.2523746"
         sodipodi:open="true"
         sodipodi:arc-type="arc"
         d="m 130.88207,692.9978 a 8.465539,8.465539 0 0 1 -8.40034,8.46529 8.465539,8.465539 0 0 1 -8.52974,-8.33488 8.465539,8.465539 0 0 1 8.26893,-8.59369 8.465539,8.465539 0 0 1 8.65713,8.20249" />
    </g>
  </g>
</svg>
